<svg version="1.1" xmlns="http://www.w3.org/2000/svg" style="display: block;" viewBox="0 0 2048 2048" width="512" height="512">
<path transform="translate(0,0)" fill="rgb(74,37,30)" d="M 1289.34 262.1 C 1301.45 261.107 1315.35 274.552 1324.94 280.643 L 1473.41 375.173 C 1522.05 405.844 1513.63 394.173 1513.6 455.201 L 1513.65 598.963 C 1513.66 608.307 1515.37 614.355 1509.68 622.247 C 1516.18 635.018 1524.54 646.962 1531.99 659.211 L 1584.84 744.334 C 1598.76 766.452 1609.99 792.804 1628.38 811.597 C 1670.81 854.951 1775.95 918.734 1771.23 983.351 C 1767.39 1035.79 1718.82 1043.44 1686.04 1072.76 L 1686.16 1312.14 C 1686.41 1387.27 1664.53 1380.57 1605.1 1418.16 L 1246.62 1642.77 C 1216.09 1661.9 1048.63 1772.74 1022.18 1779.24 C 1004.7 1771.81 988.823 1758.23 972.697 1748.17 C 935.023 1724.68 896.738 1702.18 859.274 1678.32 C 839.548 1668.33 820.334 1655 801.45 1643.29 L 412.203 1402.9 C 362.006 1371.91 365.172 1372.68 365.138 1316.63 L 365.148 1062.23 C 310.805 1070.55 258.393 1020.3 274.527 967.641 C 289.927 917.374 332.769 939.66 364.13 915.663 C 373.344 908.613 381.686 899.536 390.424 891.806 L 625.597 687.408 C 647.791 667.821 663.02 654.397 687.974 638.34 L 1241.36 291.212 C 1257.17 281.414 1272.86 270.736 1289.34 262.1 z"/>
<path transform="translate(0,0)" fill="rgb(231,207,196)" d="M 686.938 778.828 C 687.786 780.613 687.839 780.13 687.814 781.759 L 686.938 877.272 C 673.261 869.944 660.256 861.092 647.321 852.545 L 618.73 836.837 C 634.719 821.325 668.923 789.597 686.938 778.828 z"/>
<path transform="translate(0,0)" fill="rgb(231,207,196)" d="M 701.476 792.758 C 707.733 798.412 765.215 911.558 770.985 926.569 L 770.562 926.326 L 770.485 928.061 C 746.329 916.496 725.467 898.878 701.476 886.784 C 702.363 855.536 701.44 824.042 701.476 792.758 z"/>
<path transform="translate(0,0)" fill="rgb(132,131,36)" d="M 1485.21 429.306 C 1486.96 437.482 1485.28 459.458 1485.27 469.071 L 1485.21 587.205 C 1476.93 572.416 1468.1 557.921 1459.41 543.362 C 1445.33 519.717 1430.85 496.402 1415.79 473.372 C 1429.81 461.732 1468.52 438.747 1485.21 429.306 z"/>
<path transform="translate(0,0)" fill="rgb(231,207,196)" d="M 606.315 847.773 C 620.396 851.615 669.933 885.331 686.938 895.339 L 686.938 1003.67 L 643.281 976.358 C 609.279 952.979 571.873 931.287 535.703 911.617 C 558.259 889.364 583.338 869.639 606.315 847.773 z"/>
<path transform="translate(0,0)" fill="rgb(231,207,196)" d="M 701.476 903.557 C 722.69 916.751 766.105 937.348 782.952 952.832 C 792.663 961.757 860.761 1099.15 868.335 1115.42 C 862.607 1113.08 856.923 1108.22 851.696 1104.79 C 802.535 1072.51 750.212 1045.31 701.476 1012.4 L 701.476 903.557 z"/>
<path transform="translate(0,0)" fill="rgb(255,255,255)" d="M 476.795 1263.22 C 494.226 1269.88 563.338 1314.31 578.229 1325.4 C 577.696 1371.41 581.737 1427.85 578.229 1472.51 C 565.015 1465.17 552.492 1456.59 539.717 1448.52 L 476.795 1408.98 L 476.795 1263.22 z"/>
<path transform="translate(0,0)" fill="rgb(231,207,196)" d="M 1576.14 1139.81 C 1578.27 1143.18 1576.14 1221.84 1576.14 1230.14 C 1529.58 1263.15 1450.74 1313.55 1400.1 1340.68 L 1399.38 1340.61 L 1399.16 1337.28 L 1397.97 1338.22 L 1399.14 1337.07 C 1400.51 1307 1400.13 1276.89 1400.1 1246.79 C 1457.24 1213.07 1518.31 1169.85 1576.14 1139.81 z"/>
<path transform="translate(0,0)" fill="rgb(169,184,89)" d="M 1656.31 1089.96 L 1656.61 1090.06 C 1657.68 1091.87 1656.53 1334.69 1656.31 1350.88 C 1647.45 1359.66 1604.48 1385.05 1591.71 1391.9 C 1590.86 1390.44 1591.72 1152.07 1591.71 1128.26 C 1613.39 1115.8 1634.27 1101.73 1656.31 1089.96 z"/>
<path transform="translate(0,0)" fill="rgb(169,184,89)" d="M 1039.94 1434.39 C 1064.31 1452.31 1078.82 1451.06 1107.61 1446.76 L 1107.71 1663.36 C 1107.84 1674.37 1108.55 1685.52 1107.61 1696.5 L 1086.66 1710.37 C 1070.75 1719.51 1055.88 1730.5 1039.94 1739.68 L 1039.94 1434.39 z"/>
<path transform="translate(0,0)" fill="rgb(255,255,255)" d="M 811.115 1458.27 C 830.985 1465.99 910.558 1519.33 930.37 1532.35 L 930.37 1688.82 C 923.311 1689.12 825.789 1625.18 811.115 1616.26 L 811.115 1458.27 z"/>
<path transform="translate(0,0)" fill="rgb(169,184,89)" d="M 1410 1357.95 C 1410.13 1358.02 1409.96 1367.1 1409.96 1417.26 L 1410 1506.16 C 1367.95 1533.1 1320.26 1565.11 1276.95 1589.38 L 1276.95 1437.85 C 1302.67 1419.91 1383.45 1366.01 1410 1357.95 z"/>
<path transform="translate(0,0)" fill="rgb(231,207,196)" d="M 1260.18 1446.76 L 1261.18 1447.31 C 1262.03 1459.67 1260.14 1473.04 1260.14 1485.58 L 1260.18 1601.42 L 1172.56 1656.35 C 1155.74 1666.88 1138.33 1676.88 1122.46 1688.82 L 1121.87 1688.38 C 1119.91 1685.1 1122.49 1655.97 1122.5 1650.42 L 1122.46 1532.35 C 1148.99 1510.79 1227.74 1462.63 1260.18 1446.76 z"/>
<path transform="translate(0,0)" fill="rgb(231,207,196)" d="M 1576.14 1249.89 C 1578.27 1254.28 1576.13 1383.77 1576.14 1400.64 C 1538.97 1427.16 1466.49 1475.62 1426.01 1495.08 C 1423.8 1490.46 1426.02 1361.94 1426.01 1344.95 C 1474.59 1315.11 1526.72 1276.19 1576.14 1249.89 z"/>
<path transform="translate(0,0)" fill="rgb(169,184,89)" d="M 460.299 981.868 C 462.025 992.398 460.412 1005.41 460.381 1016.24 L 460.299 1400.64 C 447.371 1390.73 434.018 1381.26 418.705 1375.46 C 412.515 1367.64 401.511 1362.62 392.887 1357.95 L 392.887 1046.42 C 415.041 1024.61 437.891 1003.42 460.299 981.868 z"/>
<path transform="translate(0,0)" fill="rgb(231,207,196)" d="M 1383.82 1257.82 L 1384.74 1258.34 L 1384.49 1266.41 L 1384.4 1266.43 C 1382.96 1294.45 1383.8 1322.82 1383.82 1350.88 C 1356.22 1369.08 1327.84 1385.97 1299.67 1403.25 L 1204.01 1462.11 C 1176.9 1478.53 1150.6 1497.54 1122.46 1512.06 C 1120.98 1510.19 1122.46 1445.65 1122.46 1437.85 C 1131.02 1428.96 1137.54 1420.96 1141.26 1408.98 C 1202.35 1363.24 1314.83 1294.73 1383.82 1257.82 z"/>
<path transform="translate(0,0)" fill="rgb(169,184,89)" d="M 947.556 1270.85 C 954.139 1277.05 1004.75 1375.52 1011.8 1391.58 C 1016.93 1403.25 1013.91 1457.49 1013.91 1474.1 L 1013.93 1660.14 C 1013.93 1669.41 1015.31 1739.4 1013.94 1742.9 C 991.462 1729.17 969.368 1714.47 947.556 1699.71 C 946.267 1686.16 947.491 1671.59 947.515 1657.91 L 947.556 1270.85 z"/>
<path transform="translate(0,0)" fill="rgb(231,207,196)" d="M 523.238 922.541 C 533.277 924.818 580.513 956.786 592.668 964.297 L 686.938 1021.55 L 686.938 1159.97 C 677.23 1154.81 667.904 1148.73 658.5 1143.03 C 648.03 1136.97 637.932 1130.04 627.589 1123.74 L 519.355 1058.36 C 505.147 1049.88 491.224 1040.88 476.795 1032.78 L 476.795 966.118 C 491.272 950.747 507.706 936.848 523.238 922.541 z"/>
<path transform="translate(0,0)" fill="rgb(231,207,196)" d="M 701.476 1032.78 C 712.777 1035.8 876.518 1134.17 881.446 1140.18 C 893.827 1155.3 923.754 1220.3 935.138 1241.37 C 933.642 1263.37 932.956 1285.03 933.023 1307.07 L 932.755 1307.21 C 928.343 1307.39 721.178 1180.69 701.476 1167.72 L 701.476 1032.78 z"/>
<path transform="translate(0,0)" fill="rgb(169,184,89)" d="M 647.321 1263.22 C 696.332 1254.17 748.313 1314.29 770.218 1353.27 C 799.563 1405.47 796.079 1442.95 796.078 1499.98 L 796.055 1606.61 L 763.431 1585.36 C 711.72 1552.13 648.118 1511.14 594.304 1482.01 L 594.298 1375.16 C 594.291 1329.92 588.632 1270.68 647.321 1263.22 z"/>
<path transform="translate(0,0)" fill="rgb(255,255,255)" d="M 476.795 1051.57 C 493.044 1058.2 508.616 1069.78 523.464 1079.06 C 657.857 1163.06 796.302 1245.43 933.023 1325.4 L 933.023 1515.07 C 919.478 1508.22 906.493 1499.59 893.5 1491.73 C 866.158 1475.02 839.756 1456.41 811.115 1441.95 C 805.79 1288.68 616.031 1162.65 580.932 1307.07 L 523.625 1271.82 C 508.565 1262.7 493.5 1252.55 476.795 1246.79 L 476.795 1051.57 z"/>
<path transform="translate(0,0)" fill="rgb(169,184,89)" d="M 680.613 680.052 C 728.555 678.866 744.894 732.079 761.978 767.298 C 773.603 791.263 785.614 815.002 797.864 838.654 L 982.481 1194.81 C 998.897 1227.44 1031.11 1301.87 1057.51 1325.77 C 1079.31 1345.51 1123.15 1364.34 1114.57 1401.91 C 1110.34 1420.45 1087.09 1427.07 1070.8 1422.26 C 1042.23 1413.82 1026.68 1378.7 1014.23 1354.3 L 843.98 1021.55 L 748.42 839.219 C 734.473 812.556 714.937 768.586 697.996 745.989 C 686.495 745.262 420.75 986.758 396.584 1007.56 C 378.175 1023.4 362.53 1042.75 335.708 1034.02 C 314.444 1027.1 291.958 999.815 300.223 976.317 C 308.779 951.996 349.504 956.66 371.073 944.962 C 388.142 935.704 417.643 905.602 433.165 891.835 L 627.873 721.66 C 644.181 707.204 660.864 689.646 680.613 680.052 z"/>
<path transform="translate(0,0)" fill="rgb(190,125,104)" d="M 1289.34 294.765 C 1303.42 299.614 1332.13 320.178 1346.65 329.353 L 1467.42 406.065 C 1450.91 418.849 1385.1 452.263 1382.91 464.591 C 1380.03 480.718 1430.61 551.373 1441.08 567.99 L 1575.37 784.89 C 1599.22 823.66 1602.99 827.252 1636.45 857.56 L 1697.23 912.892 C 1767.89 976.998 1755.14 993.233 1683.91 1037.97 L 1206.42 1332.64 C 1183.45 1347.21 1159.98 1360.98 1136.95 1375.46 C 1123.95 1335.42 1081.69 1324.7 1061.83 1289.75 C 1031.59 1236.53 1004.5 1179.03 976.277 1124.51 L 782.048 744.546 C 764.896 710.078 752.662 671.698 713.303 657.325 C 729.12 646.279 745.814 636.261 762.097 625.892 L 1232.1 331.835 C 1251.28 320.088 1271.93 309.025 1289.34 294.765 z"/>
<path transform="translate(0,0)" fill="rgb(74,37,30)" d="M 1136.95 543.362 C 1147.54 542.709 1311.31 642.766 1318.54 653.058 L 1318.54 1012.4 C 1262.28 1042.46 1205.47 1087.75 1148.02 1120.76 C 1131.72 1124.97 1110.89 1076.96 1102.6 1063.22 L 987.923 873.281 C 952.048 813.068 962.911 816.801 963.067 746.357 L 963.242 698.008 C 963.12 678.625 957.291 660.73 975.004 647.949 C 994.897 633.595 1016.77 621.369 1037.22 607.67 L 1098.18 566.878 C 1110.65 558.646 1123.17 549.21 1136.95 543.362 z"/>
<path transform="translate(0,0)" fill="rgb(231,207,196)" d="M 1136.95 574.886 C 1160.07 585.897 1263.91 646.962 1280.15 663.436 C 1242.65 681.877 1182.36 727.379 1148.02 752.26 C 1141.39 751.68 1022.4 674.809 1005.55 663.436 C 1044.09 634.945 1104.01 605.647 1136.95 574.886 z"/>
<path transform="translate(0,0)" fill="rgb(169,184,89)" d="M 992.683 691.752 C 1025.67 709.534 1101.57 755.303 1128.78 778.828 L 1128.78 1051.57 C 1120.44 1043.8 1115.84 1032.01 1110.08 1022.33 L 1070.68 955.679 C 1047.69 916.22 1023.17 877.618 1000.19 838.161 C 988.911 818.781 992.598 806.013 992.616 784.046 L 992.683 691.752 z"/>
<path transform="translate(0,0)" fill="rgb(169,184,89)" d="M 1289.34 691.752 C 1290.11 693.136 1289.33 967.278 1289.34 995.03 C 1264.63 1014.5 1185.37 1065.76 1157.99 1078.97 L 1157.74 1078.91 C 1156.48 1076.97 1158.03 1035.28 1158.03 1029.41 L 1157.99 781.248 C 1170.1 768.953 1271.95 700.418 1289.34 691.752 z"/>
</svg>